M48
; DRILL file {KiCad (5.1.5-0-10_14)} date Saturday, May 02, 2020 at 09:39:49 AM
; FORMAT={-:-/ absolute / inch / decimal}
; #@! TF.CreationDate,2020-05-02T09:39:49-07:00
; #@! TF.GenerationSoftware,Kicad,Pcbnew,(5.1.5-0-10_14)
; #@! TF.FileFunction,Plated,1,2,PTH
FMAT,2
INCH
T1C0.0160
T2C0.0236
T3C0.0250
T4C0.0289
T5C0.0295
T6C0.0299
T7C0.0300
T8C0.0315
T9C0.0394
T10C0.0472
T11C0.0819
T12C0.0984
%
G90
G05
T1
X3.06Y-6.11
X3.1Y-4.4
X3.1Y-4.9
X3.1Y-5.7
X3.1Y-6.5
X3.2Y-2.9
X3.2Y-3.5
X3.285Y-6.075
X3.285Y-6.365
X3.295Y-5.9
X3.31Y-6.195
X3.33Y-2.78
X3.33Y-5.45
X3.348Y-7.21
X3.3755Y-2.289
X3.431Y-5.821
X3.4445Y-2.1755
X3.4605Y-2.6285
X3.5Y-4.4
X3.5Y-7.2
X3.515Y-4.92
X3.563Y-5.222
X3.6Y-2.9
X3.6Y-3.5
X3.6Y-5.907
X3.6Y-6.13
X3.6Y-6.422
X3.6Y-6.7
X3.62Y-7.598
X3.622Y-7.06
X3.638Y-5.742
X3.662Y-7.264
X3.7Y-2.286
X3.7015Y-5.8195
X3.7015Y-2.1755
X3.71Y-6.469
X3.8028Y-4.4028
X3.8175Y-4.9545
X3.838Y-6.818
X3.838Y-7.032
X3.839Y-5.821
X3.87Y-6.98
X3.875Y-7.3
X3.875Y-7.504
X3.91Y-5.145
X3.994Y-7.597
X3.996Y-7.442
X4.0Y-2.9
X4.0Y-3.5
X4.0Y-5.0
X4.0Y-6.6
X4.0335Y-6.762
X4.0475Y-4.4525
X4.05Y-7.02
X4.12Y-2.299
X4.18Y-5.705
X4.21Y-5.41
X4.26Y-5.91
X4.26Y-5.995
X4.4Y-6.4
X4.499Y-5.7275
X4.5Y-5.0
X4.6Y-4.6
X4.618Y-5.82
X4.95Y-5.96
X4.985Y-5.34
X5.0Y-2.5
X5.0Y-2.8
X5.0Y-3.0
X5.0294Y-5.8294
X5.119Y-5.501
X5.135Y-5.7
X5.15Y-5.0
X5.151Y-6.018
X5.2Y-4.5
X5.265Y-5.545
X5.2675Y-4.58
X5.4Y-4.65
X5.4Y-5.96
X5.493Y-4.7305
X5.493Y-5.3095
X5.5Y-6.4
X5.514Y-5.4735
X5.556Y-4.5005
X5.6Y-2.5
X5.6Y-2.8
X5.7Y-3.0
X5.773Y-5.769
X5.775Y-4.525
X5.81Y-4.98
X5.824Y-5.875
X6.0105Y-4.5315
X6.029Y-5.315
X6.064Y-4.777
X6.073Y-4.718
X6.097Y-4.823
X6.1Y-2.9
X6.117Y-5.72
X6.123Y-5.557
X6.1329Y-5.092
X6.2Y-6.4
X6.211Y-5.963
X6.3265Y-2.829
X6.3285Y-2.6955
X6.4Y-2.3
X6.4Y-5.6
X6.4455Y-4.4295
X6.5Y-5.0
X6.641Y-4.4725
X6.647Y-5.878
X6.75Y-5.962
X6.9Y-2.3
X6.9905Y-4.7475
X7.0Y-2.6
X7.0Y-4.475
X7.0Y-4.625
X7.0Y-5.75
X7.0Y-6.56
X7.009Y-5.2835
X7.0605Y-2.4835
X7.1Y-2.9
X7.171Y-4.453
X7.2285Y-5.4475
X7.25Y-2.375
X7.3Y-3.1
X7.3Y-4.0
X7.366Y-6.695
X7.3885Y-4.8
X7.425Y-4.4
X7.4325Y-6.43
X7.4425Y-6.315
X7.469Y-5.609
X7.473Y-2.7465
X7.485Y-6.591
X7.5Y-4.875
X7.5Y-5.75
X7.5Y-6.75
X7.6Y-2.3
X7.6Y-4.0
X7.604Y-5.88
X7.636Y-6.444
X7.65Y-6.525
X7.66Y-5.85
X7.719Y-5.29
X7.72Y-6.28
X7.7205Y-2.6795
X7.721Y-5.963
T2
X5.64Y-5.05
X5.64Y-5.1091
X7.33Y-5.05
X7.3891Y-5.05
X3.19Y-5.01
X3.19Y-5.0691
X3.32Y-2.5209
X3.32Y-2.58
X6.21Y-5.19
X6.2691Y-5.19
X5.1745Y-5.3125
X5.1745Y-5.3716
T3
X6.87Y-2.25
X6.92Y-2.4114
T4
X5.84Y-7.29
X5.84Y-7.627
X4.84Y-7.323
X4.84Y-7.66
T6
X5.64Y-7.29
X5.64Y-7.6837
X4.63Y-7.2963
X4.63Y-7.69
T7
X4.59Y-6.18
X4.69Y-6.28
X4.79Y-6.18
X5.79Y-6.2
X5.89Y-6.1
X5.99Y-6.2
X5.19Y-6.2
X5.29Y-6.1
X5.39Y-6.2
T8
X3.1513Y-5.59
X3.23Y-5.59
X4.86Y-5.07
X4.9387Y-5.07
X7.58Y-2.43
X7.58Y-2.5087
X7.35Y-2.43
X7.35Y-2.5087
X7.31Y-2.23
X7.3887Y-2.23
X3.7713Y-2.59
X3.85Y-2.59
X5.8184Y-6.9
X5.82Y-6.7
X5.9184Y-6.7
X5.9184Y-6.9
X6.0184Y-6.7
X6.0184Y-6.9
X5.91Y-5.0413
X5.91Y-5.12
X6.84Y-6.1
X6.9187Y-6.1
X7.29Y-6.1
X7.29Y-6.3
X4.8184Y-6.9
X4.82Y-6.7
X4.9184Y-6.7
X4.9184Y-6.9
X5.0184Y-6.7
X5.0184Y-6.9
X6.49Y-6.11
X6.49Y-6.31
X3.9884Y-6.31
X3.99Y-6.11
X4.0884Y-6.11
X4.0884Y-6.31
X4.1884Y-6.11
X4.1884Y-6.31
X3.1513Y-5.34
X3.23Y-5.34
X4.02Y-2.59
X4.0987Y-2.59
T9
X3.19Y-6.93
X3.29Y-6.93
X6.4424Y-4.6431
X6.5408Y-4.6431
X6.6392Y-4.6431
X6.7376Y-4.6431
X3.1931Y-4.6431
X3.2719Y-4.6431
X3.3506Y-4.6431
X3.4294Y-4.6431
X3.5081Y-4.6431
X3.5869Y-4.6431
X5.04Y-7.44
X5.04Y-7.54
X6.45Y-5.13
X6.45Y-5.23
X6.45Y-5.33
X6.45Y-5.43
X6.75Y-5.13
X6.75Y-5.23
X6.75Y-5.33
X6.75Y-5.43
X5.62Y-5.47
X5.62Y-5.57
X5.62Y-5.67
X5.62Y-5.77
X5.92Y-5.47
X5.92Y-5.57
X5.92Y-5.67
X5.92Y-5.77
X4.42Y-5.3
X4.42Y-5.4
X4.42Y-5.5
X4.42Y-5.6
X4.72Y-5.3
X4.72Y-5.4
X4.72Y-5.5
X4.72Y-5.6
X4.0424Y-4.6431
X4.1408Y-4.6431
X4.2392Y-4.6431
X4.3376Y-4.6431
X6.09Y-7.44
X6.09Y-7.54
X5.6424Y-4.6431
X5.7408Y-4.6431
X5.8392Y-4.6431
X5.9376Y-4.6431
X7.2424Y-4.6431
X7.3408Y-4.6431
X7.4392Y-4.6431
X7.5376Y-4.6431
X4.7931Y-4.6431
X4.8719Y-4.6431
X4.9506Y-4.6431
X5.0294Y-4.6431
X5.1081Y-4.6431
X5.1869Y-4.6431
X3.67Y-5.31
X3.67Y-5.41
X3.67Y-5.51
X3.67Y-5.61
X3.97Y-5.31
X3.97Y-5.41
X3.97Y-5.51
X3.97Y-5.61
T10
X3.1941Y-7.3628
X3.1941Y-7.54
X3.45Y-7.3628
X3.45Y-7.54
T11
X3.2Y-3.2951
X3.5Y-3.2951
X3.9Y-3.2951
X6.9Y-2.9049
X7.3Y-2.9049
X7.6Y-2.9049
T12
X5.5439Y-4.21
X6.0361Y-4.21
X7.6361Y-4.21
X4.7439Y-4.21
X5.2361Y-4.21
X6.3439Y-4.21
X6.8361Y-4.21
X3.1439Y-4.21
X3.6361Y-4.21
X3.9439Y-4.21
X4.4361Y-4.21
X7.1439Y-4.21
T5
G00X6.2969Y-2.4561
M15
G01X6.2969Y-2.5171
M16
G05
G00X6.2969Y-2.9659
M15
G01X6.2969Y-3.027
M16
G05
T9
G00X6.515Y-2.4508
M15
G01X6.515Y-2.5492
M16
G05
G00X6.6508Y-2.3819
M15
G01X6.7492Y-2.3819
M16
G05
G00X6.6508Y-2.6181
M15
G01X6.7492Y-2.6181
M16
G05
T0
M30
